<svg width="46" height="46" viewBox="0 0 46 46" fill="none" xmlns="http://www.w3.org/2000/svg">
<rect width="46" height="46" rx="8" fill="#FEFEFE"/>
<path d="M35.7787 31.1527L31.4503 27.367L27.5232 23.9344H20.6238L28.0656 30.5191L32.3205 34.2789L34.9198 36.5794H42L35.79 31.1527H35.7787ZM37.7168 15.9164C36.9145 14.0885 35.773 12.5046 34.2869 11.17C32.8347 9.83538 31.1113 8.81236 29.1223 8.10092C27.1333 7.36351 24.9521 7 22.5732 7C20.1943 7 18.0471 7.36351 16.0242 8.10092C14.0352 8.81236 12.2835 9.83538 10.7691 11.17C9.25474 12.5046 8.08507 14.0885 7.24878 15.9164C6.41814 17.7184 6 19.7073 6 21.8935C6 24.0798 6.40119 26.0531 7.20357 27.907C8.03986 29.735 9.19259 31.3344 10.6787 32.7002C12.1987 34.066 13.9617 35.1253 15.979 35.8939C17.9962 36.6313 20.1943 37 22.5676 37C24.3419 37 26.0088 36.7975 27.5571 36.3924L22.0986 31.6512C20.522 31.5473 19.0698 31.1475 17.7533 30.4516C16.2106 29.6311 14.9788 28.4835 14.0578 27.0087C13.1706 25.539 12.7242 23.8305 12.7242 21.8987C12.7242 20.0708 13.1424 18.4454 13.973 17.0277C14.8319 15.61 15.9903 14.4935 17.4481 13.673C18.9342 12.8525 20.6407 12.4475 22.5676 12.4475C24.6413 12.4475 26.4439 12.8993 27.9583 13.7976C29.5009 14.696 30.6875 15.8956 31.5181 17.3964C32.3544 18.892 32.7669 20.5745 32.7669 22.4284C32.7669 24.2823 32.3488 25.8662 31.5181 27.2579C31.4955 27.2995 31.4673 27.3358 31.439 27.3774L27.5118 23.9448H20.6125L28.0543 30.5295L32.3092 34.2893C32.394 34.2373 32.4844 34.1802 32.5635 34.1179C33.1907 33.6921 33.7784 33.2195 34.3265 32.7002C34.8576 32.212 35.3379 31.7031 35.773 31.1579C36.5811 30.1712 37.2422 29.0859 37.7564 27.907C38.5588 26.0531 38.96 24.0486 38.96 21.8935C38.96 19.7384 38.5418 17.7184 37.7112 15.9164H37.7168ZM27.5175 23.9396H20.6181L28.06 30.5243C28.1221 30.4932 28.1786 30.4568 28.2464 30.4205C29.5969 29.6623 30.6705 28.6496 31.4503 27.3722L27.5232 23.9396H27.5175Z" fill="#008CFF"/>
</svg>
