<svg width="98" height="35" viewBox="0 0 98 35" fill="none" xmlns="http://www.w3.org/2000/svg">
<path d="M93.1111 20.1362L89.7097 16.9807L86.6237 14.1196H81.2019L87.0499 19.6081L90.3936 22.742L92.4362 24.6595H98L93.12 20.1362H93.1111ZM94.6342 7.43637C94.0036 5.91274 93.1067 4.59255 91.9388 3.48012C90.7977 2.3677 89.4433 1.51498 87.8803 0.921976C86.3173 0.307329 84.6033 0.0043335 82.7339 0.0043335C80.8644 0.0043335 79.1771 0.307329 77.5874 0.921976C76.0244 1.51498 74.6479 2.3677 73.4578 3.48012C72.2678 4.59255 71.3486 5.91274 70.6914 7.43637C70.0387 8.93836 69.7101 10.5962 69.7101 12.4185C69.7101 14.2408 70.0254 15.8856 70.6559 17.4309C71.3131 18.9545 72.2189 20.2877 73.3868 21.4261C74.5813 22.5645 75.9667 23.4475 77.5519 24.0881C79.1371 24.7028 80.8644 25.0101 82.7294 25.0101C84.1237 25.0101 85.4336 24.8413 86.6503 24.5037L82.3609 20.5517C81.122 20.4652 79.9808 20.1319 78.9462 19.5519C77.7339 18.8679 76.7659 17.9114 76.0421 16.6821C75.345 15.4571 74.9942 14.033 74.9942 12.4228C74.9942 10.8992 75.3228 9.54435 75.9755 8.36267C76.6505 7.18099 77.5608 6.25036 78.7064 5.56646C79.8742 4.88256 81.2152 4.54493 82.7294 4.54493C84.359 4.54493 85.7755 4.92151 86.9656 5.67034C88.1778 6.41917 89.1103 7.41906 89.763 8.67C90.4202 9.9166 90.7444 11.319 90.7444 12.8643C90.7444 14.4096 90.4158 15.7298 89.763 16.8898C89.7453 16.9245 89.7231 16.9548 89.7009 16.9894L86.6148 14.1282H81.193L87.0411 19.6168L90.3847 22.7506C90.4513 22.7073 90.5223 22.6597 90.5845 22.6078C91.0774 22.2528 91.5392 21.8589 91.9699 21.4261C92.3873 21.0192 92.7648 20.595 93.1067 20.1405C93.7416 19.3181 94.2612 18.4135 94.6653 17.4309C95.2958 15.8856 95.6111 14.2148 95.6111 12.4185C95.6111 10.6222 95.2825 8.93836 94.6297 7.43637H94.6342ZM86.6192 14.1239H81.1975L87.0455 19.6125C87.0943 19.5865 87.1387 19.5562 87.192 19.5259C88.2533 18.8939 89.097 18.0499 89.7097 16.9851L86.6237 14.1239H86.6192Z" fill="#008CFF"/>
<path d="M0 1.8396H4.12515L12.2333 12.6738C13.8408 14.8208 15.6924 17.8854 15.6924 17.8854V1.8396H19.7465V23.915H15.5548L7.8329 13.6261C5.87467 11.003 4.05854 8.00339 4.05854 8.00339V23.9106H0V1.8396Z" fill="black"/>
<path d="M23.5164 15.5004C23.5164 10.5962 27.6061 6.70917 32.7081 6.70917C37.8101 6.70917 41.8998 10.5918 41.8998 15.5004C41.8998 20.4089 37.8101 24.2569 32.7081 24.2569C27.6061 24.2569 23.5164 20.3743 23.5164 15.5004ZM37.9522 15.5004C37.9522 12.5353 35.6787 10.3581 32.7081 10.3581C29.7375 10.3581 27.464 12.5397 27.464 15.5004C27.464 18.4611 29.7375 20.6123 32.7081 20.6123C35.6787 20.6123 37.9522 18.4308 37.9522 15.5004Z" fill="black"/>
<path d="M42.9122 7.05112H46.7931L50.3232 15.5696C51.2335 17.7512 51.9307 20.1016 51.9307 20.1016C51.9307 20.1016 52.6633 17.7165 53.5381 15.6042L57.0327 7.05544H60.9136L53.7823 23.9539H50.0435L42.9122 7.05544V7.05112Z" fill="black"/>
<path d="M62.7253 2.31575C62.7253 1.05615 63.7733 0 65.0654 0C66.3576 0 67.4411 1.05615 67.4411 2.31575C67.4411 3.57534 66.3576 4.59687 65.0654 4.59687C63.7733 4.59687 62.7253 3.57534 62.7253 2.31575ZM63.1472 7.05113H67.0281V23.915H63.1472V7.05113Z" fill="black"/>
<path d="M0.661631 28.4945H4.71573V29.0919H1.35878V30.767H4.15624V31.3557H1.35878V34.009H0.661631V28.4989V28.4945Z" fill="black"/>
<path d="M9.03625 28.4945H9.7334V34.0047H9.03625V28.4945Z" fill="black"/>
<path d="M14.5468 28.4945H15.244L18.0592 32.0742C18.3478 32.4465 18.6586 32.9659 18.6586 32.9659V28.4945H19.3558V34.0047H18.6409L15.8745 30.5116C15.5326 30.0788 15.2395 29.5593 15.2395 29.5593V34.0047H14.5424V28.4945H14.5468Z" fill="black"/>
<path d="M26.274 28.4772H26.9001L29.551 34.0004H28.845L28.321 32.9313H24.8575L24.3335 34.0004H23.6186L26.2695 28.4772H26.274ZM28.0723 32.3772L27.0333 30.2346C26.8423 29.8364 26.6247 29.3083 26.5892 29.2391C26.5537 29.3083 26.345 29.8234 26.1452 30.2346L25.1061 32.3772H28.0723Z" fill="black"/>
<path d="M33.8182 28.4945H34.5154L37.3306 32.0742C37.6192 32.4465 37.93 32.9659 37.93 32.9659V28.4945H38.6272V34.0047H37.9123L35.1459 30.5116C34.804 30.0788 34.5109 29.5593 34.5109 29.5593V34.0047H33.8138V28.4945H33.8182Z" fill="black"/>
<path d="M43.2142 31.2388C43.2142 29.6676 44.4797 28.408 46.1626 28.408C46.913 28.408 47.6013 28.672 48.1075 29.1135L47.699 29.5723C47.2727 29.2131 46.7665 29.0269 46.207 29.0269C44.8971 29.0269 43.9379 30.0225 43.9379 31.2388C43.9379 32.4551 44.8971 33.468 46.1626 33.468C46.8153 33.468 47.4103 33.2126 47.8189 32.7884L48.254 33.2559C47.7301 33.7666 46.9974 34.087 46.1626 34.087C44.4797 34.087 43.2142 32.8274 43.2142 31.2388Z" fill="black"/>
<path d="M52.5612 28.4945H56.8329V29.0919H53.2584V30.767H56.6064V31.3557H53.2584V33.4117H56.9661V34.009H52.5612V28.4989V28.4945Z" fill="black"/>
<path d="M80.0485 34V28.7004H82.4712C82.9557 28.7004 83.3721 28.7786 83.7204 28.9351C84.0737 29.0916 84.3462 29.3187 84.538 29.6165C84.7298 29.9092 84.8257 30.2575 84.8257 30.6613C84.8257 31.06 84.7298 31.4057 84.538 31.6985C84.3462 31.9912 84.0737 32.2183 83.7204 32.3798C83.3721 32.5363 82.9557 32.6145 82.4712 32.6145H80.8813L81.5476 31.9634V34H80.0485ZM81.5476 32.1224L80.8813 31.4335H82.3804C82.6933 31.4335 82.9254 31.3653 83.0769 31.2291C83.2333 31.0928 83.3116 30.9035 83.3116 30.6613C83.3116 30.4139 83.2333 30.2221 83.0769 30.0859C82.9254 29.9496 82.6933 29.8815 82.3804 29.8815H80.8813L81.5476 29.1925V32.1224Z" fill="#008CFF"/>
<path d="M72.6477 34V28.7004H75.0704C75.5549 28.7004 75.9713 28.7786 76.3196 28.9351C76.6729 29.0916 76.9454 29.3187 77.1372 29.6165C77.329 29.9092 77.4249 30.2575 77.4249 30.6613C77.4249 31.06 77.329 31.4057 77.1372 31.6985C76.9454 31.9912 76.6729 32.2183 76.3196 32.3798C75.9713 32.5363 75.5549 32.6145 75.0704 32.6145H73.4805L74.1468 31.9634V34H72.6477ZM74.1468 32.1224L73.4805 31.4335H74.9796C75.2925 31.4335 75.5247 31.3653 75.6761 31.2291C75.8325 31.0928 75.9108 30.9035 75.9108 30.6613C75.9108 30.4139 75.8325 30.2221 75.6761 30.0859C75.5247 29.9496 75.2925 29.8815 74.9796 29.8815H73.4805L74.1468 29.1925V32.1224Z" fill="#008CFF"/>
<path d="M64.1674 34L66.5068 28.7004H67.9831L70.3301 34H68.7705L66.9383 29.4348H67.5288L65.6967 34H64.1674ZM65.4469 32.9704L65.833 31.865H68.4222L68.8083 32.9704H65.4469Z" fill="#008CFF"/>
<path d="M61.0675 34.0681C60.8252 34.0681 60.6208 33.9874 60.4543 33.8259C60.2877 33.6643 60.2044 33.4599 60.2044 33.2126C60.2044 32.9552 60.2877 32.7508 60.4543 32.5994C60.6208 32.4429 60.8252 32.3647 61.0675 32.3647C61.3098 32.3647 61.5142 32.4429 61.6807 32.5994C61.8473 32.7508 61.9306 32.9552 61.9306 33.2126C61.9306 33.4599 61.8473 33.6643 61.6807 33.8259C61.5142 33.9874 61.3098 34.0681 61.0675 34.0681Z" fill="#008CFF"/>
</svg>
